HIERARCHY
ROOT SpineBase
{
  OFFSET 0.000000 0.000000 0.000000
  CHANNELS 6 Xposition Yposition Zposition Zrotation Xrotation Yrotation
  JOINT SpineMid
  {
    OFFSET 0.000000 30.696316 0.000000
    CHANNELS 3 Zrotation Xrotation Yrotation
    JOINT SpineShoulder
    {
      OFFSET -0.096781 22.800699 -0.747748
      CHANNELS 3 Zrotation Xrotation Yrotation
      JOINT Neck
      {
        OFFSET -0.056310 7.566695 -0.570851
        CHANNELS 3 Zrotation Xrotation Yrotation
        JOINT Head
        {
          OFFSET 6.660787 11.396413 2.968441
          CHANNELS 3 Zrotation Xrotation Yrotation
          End Site
          {
            OFFSET 0 0 0
          }
        }
      }
      JOINT ShoulderLeft
      {
        OFFSET -8.596754 -3.409983 -13.002034
        CHANNELS 3 Zrotation Xrotation Yrotation
        JOINT ElbowLeft
        {
          OFFSET -4.921621 -23.884220 -6.102012
          CHANNELS 3 Zrotation Xrotation Yrotation
          JOINT WristLeft
          {
            OFFSET 4.730395 -22.924218 -4.324774
            CHANNELS 3 Zrotation Xrotation Yrotation
            JOINT HandLeft
            {
              OFFSET 1.346213 -8.583804 1.229283
              CHANNELS 3 Zrotation Xrotation Yrotation
              JOINT HandTipLeft
              {
                OFFSET 2.096448 -7.493643 -1.888377
                CHANNELS 3 Zrotation Xrotation Yrotation
                End Site
                {
                  OFFSET 0 0 0
                }
              }
              JOINT ThumbLeft
              {
                OFFSET 2.381926 1.476327 3.480505
                CHANNELS 3 Zrotation Xrotation Yrotation
                End Site
                {
                  OFFSET 0 0 0
                }
              }
            }
          }
        }
      }
      JOINT ShoulderRight
      {
        OFFSET 8.364804 2.889422 2.641402
        CHANNELS 3 Zrotation Xrotation Yrotation
        JOINT ElbowRight
        {
          OFFSET 5.011421 -24.255560 7.159437
          CHANNELS 3 Zrotation Xrotation Yrotation
          JOINT WristRight
          {
            OFFSET -0.920145 -26.956966 1.947028
            CHANNELS 3 Zrotation Xrotation Yrotation
            JOINT HandRight
            {
              OFFSET -0.553863 -8.716262 -0.310669
              CHANNELS 3 Zrotation Xrotation Yrotation
              JOINT HandTipRight
              {
                OFFSET 0.623623 -4.167591 -3.275863
                CHANNELS 3 Zrotation Xrotation Yrotation
                End Site
                {
                  OFFSET 0 0 0
                }
              }
              JOINT ThumbRight
              {
                OFFSET 0.495283 0.625923 -1.351147
                CHANNELS 3 Zrotation Xrotation Yrotation
                End Site
                {
                  OFFSET 0 0 0
                }
              }
            }
          }
        }
      }
    }
  }
  JOINT HipLeft
  {
    OFFSET -4.793144 1.154908 -7.905022
    CHANNELS 3 Zrotation Xrotation Yrotation
    JOINT KneeLeft
    {
      OFFSET -9.597214 -36.456557 -1.946949
      CHANNELS 3 Zrotation Xrotation Yrotation
      JOINT AnkleLeft
      {
        OFFSET -7.085391 -35.619447 2.453378
        CHANNELS 3 Zrotation Xrotation Yrotation
        JOINT FootLeft
        {
          OFFSET 6.200617 -5.766151 -1.966461
          CHANNELS 3 Zrotation Xrotation Yrotation
          End Site
          {
            OFFSET 0 0 0
          }
        }
      }
    }
  }
  JOINT HipRight
  {
    OFFSET 4.720171 0.510058 0.991498
    CHANNELS 3 Zrotation Xrotation Yrotation
    JOINT KneeRight
    {
      OFFSET -5.270873 -35.577959 4.425617
      CHANNELS 3 Zrotation Xrotation Yrotation
      JOINT AnkleRight
      {
        OFFSET -12.108790 -34.705798 -0.721119
        CHANNELS 3 Zrotation Xrotation Yrotation
        JOINT FootRight
        {
          OFFSET 0.769444 -7.645380 -6.039147
          CHANNELS 3 Zrotation Xrotation Yrotation
          End Site
          {
            OFFSET 0 0 0
          }
        }
      }
    }
  }
}
MOTION
Frames: 14
Frame Time: 0.033333
4.446623 78.470907 368.209098 0.331612 1.064046 -43.406514 0.490294 -1.000892 43.407718 -0.000000 0.000000 0.000000 0.654909 -1.038466 0.444844 0.000000 0.000000 0.000000 -1.819669 0.657905 0.338208 -0.899380 -1.198143 0.039950 -3.310300 16.202251 2.130902 -10.020163 -27.795532 -6.899773 0.000000 0.000000 0.000000 0.000000 0.000000 0.000000 1.708248 -2.985479 -0.067466 -1.852038 -4.238723 0.389395 -3.022916 8.860549 0.212286 1.561949 -22.483005 -2.566990 0.000000 0.000000 0.000000 0.000000 0.000000 0.000000 0.490294 -1.000892 43.407718 -0.000000 0.000000 0.000000 -2.769496 -4.343992 -3.987604 0.000000 0.000000 0.000000 1.455079 -1.227067 43.616821 -1.885784 3.578174 -1.060437 6.627171 -18.551056 -4.103601 0.000000 0.000000 0.000000
4.474019 78.471942 368.255564 0.395423 0.934790 -43.461209 0.356004 -0.950500 43.460936 -0.000000 0.000000 0.000000 1.100160 -1.001863 0.311070 0.000000 0.000000 0.000000 -1.646282 0.654997 0.293766 -0.580249 -1.481954 -0.067845 -2.451281 16.321089 2.268037 -10.039129 -26.811265 -6.670139 0.000000 0.000000 0.000000 0.000000 0.000000 0.000000 1.708491 -2.984732 -0.067247 -1.873591 -4.084590 0.382380 -2.092218 12.375564 -0.107387 -1.427610 -29.067096 -1.744740 0.000000 0.000000 0.000000 0.000000 0.000000 0.000000 0.356004 -0.950500 43.460936 -0.000000 0.000000 0.000000 -3.724180 -4.397921 -3.784710 0.000000 0.000000 0.000000 1.186010 -1.142414 43.639782 -1.787074 3.682191 -1.113653 7.407086 -21.164339 -4.700681 0.000000 0.000000 0.000000
4.523986 78.466631 368.400503 0.484788 0.666762 -43.492665 0.107200 -0.817367 43.490609 -0.000000 0.000000 0.000000 1.535242 -0.916567 0.149564 0.000000 0.000000 0.000000 -1.424886 0.572232 0.252284 -0.213207 -1.787065 -0.214878 -1.128723 15.328475 2.202128 -11.472457 -25.632608 -6.713662 0.000000 0.000000 0.000000 0.000000 0.000000 0.000000 1.708676 -2.983797 -0.067011 -1.866598 -3.285409 0.356752 -1.361749 13.995821 -0.373070 -3.490319 -35.104828 -1.995007 0.000000 0.000000 0.000000 0.000000 0.000000 0.000000 0.107200 -0.817367 43.490609 -0.000000 0.000000 0.000000 -4.751629 -4.257736 -3.325640 0.000000 0.000000 0.000000 0.107200 -0.817367 43.490609 -1.249562 2.919412 -0.956821 7.144525 -21.057470 -4.604353 0.000000 0.000000 0.000000
4.546499 78.449265 368.528426 0.527215 0.440099 -43.498775 -0.079515 -0.682140 43.496276 -0.000000 0.000000 0.000000 1.951013 -0.809663 -0.021473 0.000000 0.000000 0.000000 -1.208392 0.424477 0.225040 0.354321 -1.931859 -0.385325 -0.862535 15.370186 2.383484 -12.320053 -25.317268 -6.877459 0.000000 0.000000 0.000000 0.000000 0.000000 0.000000 1.708805 -2.982731 -0.066768 -1.877472 -2.320290 0.324413 0.121496 14.453209 -0.741938 -5.703499 -37.248800 -1.982061 0.000000 0.000000 0.000000 0.000000 0.000000 0.000000 -0.079515 -0.682140 43.496276 -0.000000 0.000000 0.000000 -5.747462 -4.035091 -2.763714 0.000000 0.000000 0.000000 -0.079515 -0.682140 43.496276 -1.105425 2.631796 -0.866680 6.015077 -18.913820 -3.965352 0.000000 0.000000 0.000000
4.572503 78.446520 368.645355 0.572407 0.247395 -43.490564 -0.245024 -0.573426 43.488102 -0.000000 0.000000 0.000000 2.149910 -0.749435 -0.109355 0.000000 0.000000 0.000000 -1.038057 0.272175 0.211071 0.962865 -1.940771 -0.539242 -0.523999 15.974328 2.648937 -13.222039 -26.396223 -7.671280 0.000000 0.000000 0.000000 0.000000 0.000000 0.000000 2.372178 -4.176007 -0.075264 -2.919923 1.316234 0.331797 0.774918 13.813555 -0.807598 -8.370426 -44.257353 -2.960865 0.000000 0.000000 0.000000 0.000000 0.000000 0.000000 -0.245024 -0.573426 43.488102 -0.000000 0.000000 0.000000 -5.914686 -3.693381 -2.297623 0.000000 0.000000 0.000000 -0.245024 -0.573426 43.488102 -0.876318 1.984503 -0.657075 3.931499 -13.770156 -2.624675 0.000000 0.000000 0.000000
4.603003 78.451319 368.753701 0.622446 0.083230 -43.526395 -0.394001 -0.489012 43.524262 -0.000000 0.000000 0.000000 2.183515 -0.718591 -0.136870 0.000000 0.000000 0.000000 -0.876825 0.149121 0.194060 1.573876 -1.903828 -0.673733 -0.468668 20.140040 3.493127 -14.953991 -33.080831 -11.130651 0.000000 0.000000 0.000000 0.000000 0.000000 0.000000 1.540489 -2.676682 -0.061809 -1.320740 0.990899 0.200010 0.902738 10.631827 -0.798424 -9.752820 -43.323137 -2.958060 0.000000 0.000000 0.000000 0.000000 0.000000 0.000000 -0.394001 -0.489012 43.524262 -0.000000 0.000000 0.000000 -5.778630 -3.352123 -1.926161 0.000000 0.000000 0.000000 -0.394001 -0.489012 43.524262 -0.670768 1.449860 -0.482341 2.251138 -9.308500 -1.431492 0.000000 0.000000 0.000000
4.675112 78.511072 368.892760 0.731299 -0.106341 -44.452219 -0.596506 -0.436226 44.450627 -0.000000 0.000000 0.000000 1.343786 -0.847618 0.156693 0.000000 0.000000 0.000000 -0.000000 0.000000 0.000000 1.512675 -1.618997 -0.598077 -0.864416 17.069556 3.136223 -11.771036 -26.394162 -7.640563 0.000000 0.000000 0.000000 0.000000 0.000000 0.000000 0.873817 -1.474352 -0.035272 0.044888 1.313599 0.107311 0.877471 6.362978 -0.630824 -9.570192 -39.189368 -2.439867 0.000000 0.000000 0.000000 0.000000 0.000000 0.000000 -0.596506 -0.436226 44.450627 -0.000000 0.000000 0.000000 -5.977581 -3.142690 -1.609356 0.000000 0.000000 0.000000 -0.596506 -0.436226 44.450627 -0.515395 0.986253 -0.328391 1.098100 -5.994550 -0.596417 0.000000 0.000000 0.000000
4.850548 79.912620 369.202911 0.493137 0.355300 -44.099833 -0.106891 -0.598326 44.097746 -0.000000 0.000000 0.000000 0.028691 -1.756676 1.023971 0.000000 0.000000 0.000000 -0.637379 1.571102 -0.151479 3.421100 -4.651653 -0.840193 -2.481436 16.354316 3.397419 -9.443448 -25.604930 -7.043616 0.000000 0.000000 0.000000 0.000000 0.000000 0.000000 -0.000000 0.000000 0.000000 2.441026 4.215063 -0.057644 0.076141 0.252318 -0.408701 -10.254408 -36.770887 -1.989364 0.000000 0.000000 0.000000 0.000000 0.000000 0.000000 -1.026493 0.111922 43.800245 0.172126 -1.149116 0.295324 -5.400789 -3.056451 -1.689440 0.000000 0.000000 0.000000 0.072021 0.341208 44.113970 -1.835533 0.460564 -0.349853 -0.540668 -8.940435 0.721468 0.000000 0.000000 0.000000
4.870937 79.959063 368.807384 0.517473 0.513156 -44.129032 -0.420589 -0.014884 44.134094 -0.205333 -0.795273 -0.011532 1.261620 -1.370657 0.492299 0.000000 0.000000 0.000000 0.520838 -1.185158 0.116964 1.601714 0.442345 -0.687772 -2.411442 11.814105 2.342001 -6.636090 -18.115210 -3.957849 0.000000 0.000000 0.000000 0.000000 0.000000 0.000000 -0.000000 0.000000 0.000000 1.924125 3.396884 -0.034148 0.052930 -4.853368 0.084596 -9.717517 -32.132146 -1.559103 0.000000 0.000000 0.000000 0.000000 0.000000 0.000000 -0.014146 -0.728629 44.126624 -0.000000 0.000000 0.000000 -3.952129 -2.960479 -2.031125 0.000000 0.000000 0.000000 -0.014146 -0.728629 44.126624 -0.567554 0.663000 -0.215846 -1.518836 -6.137223 1.254487 0.000000 0.000000 0.000000
4.471503 76.130043 368.806271 1.238876 -1.216111 -39.997222 -0.346767 -0.054967 40.037795 0.053386 -0.274403 0.040518 4.312253 1.392844 -1.654212 0.000000 0.000000 0.000000 -1.279419 -1.692161 0.641934 2.093955 3.200810 -1.086460 -3.112725 7.112044 1.341354 -4.739561 -11.274032 -1.534974 0.000000 0.000000 0.000000 0.000000 0.000000 0.000000 -0.989928 1.310813 -0.053654 2.389585 -2.282414 0.297927 -0.768168 -1.724663 -0.013234 -10.270998 -31.454472 -1.178299 0.000000 0.000000 0.000000 0.000000 0.000000 0.000000 -1.730681 0.135119 40.012412 -0.000000 0.000000 0.000000 -2.163426 -2.965270 -2.582319 0.000000 0.000000 0.000000 -2.969260 -1.385575 39.814401 1.925090 0.374696 0.178198 1.520358 8.191516 -0.457577 0.000000 0.000000 0.000000
4.043691 73.304888 368.633427 1.627347 -2.555572 -37.016741 -0.254132 -0.121409 37.091782 0.005710 -0.354726 0.051342 7.432591 4.086972 -3.746645 0.000000 0.000000 0.000000 -2.431341 -2.500857 1.349580 2.070583 5.897202 -1.571393 -2.368492 4.919260 0.743856 -3.834709 -7.139913 -0.305791 0.000000 0.000000 0.000000 0.000000 0.000000 0.000000 -1.353149 2.856117 -0.047189 0.928610 -9.506683 0.466859 0.175036 4.931100 -0.194933 -11.203166 -31.237825 -0.122303 0.000000 0.000000 0.000000 0.000000 0.000000 0.000000 -2.838289 1.059472 37.079289 -0.000000 0.000000 0.000000 -1.292724 -3.013809 -2.895261 0.000000 0.000000 0.000000 -4.991393 -1.888937 36.786577 4.993208 0.887465 0.253735 3.770586 21.087177 -2.656374 0.000000 0.000000 0.000000
3.693299 71.457863 368.389820 1.770931 -3.391165 -35.132964 -0.178337 -0.191006 35.228460 -0.050881 -0.347177 0.052890 10.064338 5.751998 -5.435023 0.000000 0.000000 0.000000 -3.330668 -4.372148 2.153301 2.194203 8.087164 -2.351482 -2.210075 4.139910 0.416311 -2.300797 -5.514180 0.108859 0.000000 0.000000 0.000000 0.000000 0.000000 0.000000 -1.458770 3.794047 -0.033582 -3.925740 -14.578090 -0.282738 4.383119 8.132829 -0.415146 -10.529839 -29.294297 0.125419 0.000000 0.000000 0.000000 0.000000 0.000000 0.000000 -3.401118 1.751723 35.237403 -0.000000 0.000000 0.000000 -0.889256 -3.049463 -3.052884 0.000000 0.000000 0.000000 -5.964529 -2.293572 34.946834 6.564186 1.419758 0.252827 6.448718 30.208054 -5.046568 0.000000 0.000000 0.000000
3.436911 70.560265 368.137827 1.686157 -3.737397 -34.270083 -0.142868 -0.225568 34.365208 -0.095509 -0.318274 0.046268 11.906294 6.534334 -6.498330 0.000000 0.000000 0.000000 -3.354041 -5.586483 2.528912 1.591180 10.136634 -2.372737 -2.250522 3.976281 0.083594 -2.168471 -8.127692 -0.419387 0.000000 0.000000 0.000000 0.000000 0.000000 0.000000 -0.435981 2.619212 -0.126743 -12.855527 -13.478619 -1.527878 10.900913 9.406942 -0.633024 -9.988783 -29.490203 0.675212 0.000000 0.000000 0.000000 0.000000 0.000000 0.000000 -3.499939 2.136197 34.390373 -0.000000 0.000000 0.000000 -0.460064 -3.025218 -3.150354 0.000000 0.000000 0.000000 -5.939567 -2.615107 34.174232 7.103465 2.049315 0.132785 7.758567 34.960947 -6.210529 0.000000 0.000000 0.000000
3.308003 70.611066 367.924295 1.427595 -3.563654 -34.476030 -0.121056 -0.244483 34.552480 -0.123420 -0.268605 0.033877 12.633090 6.222775 -6.544019 0.000000 0.000000 0.000000 -2.654816 -4.436744 2.156115 0.669057 8.649609 -1.839803 -3.300879 5.541628 0.179798 -2.881309 -11.086717 -0.764926 0.000000 0.000000 0.000000 0.000000 0.000000 0.000000 0.500640 1.210032 -0.191068 -21.300224 -5.996137 -1.549059 16.864909 6.731052 0.202212 -8.274565 -32.867212 -0.037307 0.000000 0.000000 0.000000 0.000000 0.000000 0.000000 -2.299414 1.581086 34.780527 -0.424116 0.959934 -0.226185 0.269970 -2.931241 -3.257251 0.000000 0.000000 0.000000 -5.023700 -2.847900 34.483709 6.456768 2.781359 -0.086619 8.253589 34.194950 -6.355796 0.000000 0.000000 0.000000
